<svg width="430.3" height="93.2" viewBox="0 0 430.3 93.2" xmlns="http://www.w3.org/2000/svg"><g id="svgGroup" stroke-linecap="round" fill-rule="evenodd" font-size="9pt" stroke="#7568c7" stroke-width="0.50mm" fill="none" style="stroke:#7568c7;stroke-width:0.50mm;fill:none"><path d="M 268.8 70 L 259.8 70 L 259.8 0 L 272.4 0 L 303.3 58.2 L 303.3 0 L 312.3 0 L 312.3 70 L 299.9 70 L 268.8 12.2 L 268.8 70 Z M 372.3 70 L 330.3 70 L 330.3 0 L 372.3 0 L 372.3 8.2 L 339.8 8.2 L 339.8 29.5 L 367.8 29.5 L 367.8 37.5 L 339.8 37.5 L 339.8 61.8 L 372.3 61.8 L 372.3 70 Z M 172.7 88.8 L 176 81 A 20.562 20.562 0 0 0 179.817 83.373 A 24.737 24.737 0 0 0 181.6 84.15 Q 184.359 85.228 188.159 85.376 A 31.788 31.788 0 0 0 189.4 85.4 A 21.701 21.701 0 0 0 193.921 84.957 Q 196.822 84.339 199.022 82.859 A 12.576 12.576 0 0 0 200.55 81.65 A 11.352 11.352 0 0 0 203.457 77.157 Q 204.6 74.056 204.6 69.7 L 204.6 63.3 Q 202.6 65.7 198.85 67.85 Q 195.1 70 189.9 70 Q 184 70 178.7 66.95 A 22.236 22.236 0 0 1 171.408 60.112 A 27.437 27.437 0 0 1 170.1 58 A 25.181 25.181 0 0 1 167.387 50.376 A 35.033 35.033 0 0 1 166.8 43.8 A 32.06 32.06 0 0 1 167.717 35.992 A 26.682 26.682 0 0 1 170.05 29.9 A 25.706 25.706 0 0 1 176.114 22.278 A 24.448 24.448 0 0 1 178.8 20.3 Q 184.3 16.8 190.9 16.8 A 22.366 22.366 0 0 1 195.72 17.301 A 18.715 18.715 0 0 1 198.9 18.3 A 25.705 25.705 0 0 1 202.728 20.268 A 20.998 20.998 0 0 1 205.1 22 L 205.1 18 L 213.3 18 L 213.3 68.8 Q 213.3 77.4 210.3 82.8 Q 207.3 88.2 201.95 90.7 A 25.811 25.811 0 0 1 195.346 92.721 A 35.243 35.243 0 0 1 189.4 93.2 Q 184.8 93.2 180.45 92.1 A 27.232 27.232 0 0 1 175.15 90.183 A 23.518 23.518 0 0 1 172.7 88.8 Z M 120.1 70 L 111.1 70 L 111.1 18 L 119.8 18 L 119.8 26.7 Q 122.6 22.5 126.95 19.65 A 17.316 17.316 0 0 1 134.056 17.025 A 22.629 22.629 0 0 1 137.3 16.8 A 23.225 23.225 0 0 1 142.365 17.318 Q 147.459 18.456 150.45 22.1 Q 154.575 27.126 154.788 35.209 A 33.764 33.764 0 0 1 154.8 36.1 L 154.8 70 L 145.8 70 L 145.8 37.1 A 19.265 19.265 0 0 0 145.458 33.359 Q 145.019 31.145 144.019 29.397 A 10.966 10.966 0 0 0 143.15 28.1 A 8.579 8.579 0 0 0 136.873 24.747 A 12.061 12.061 0 0 0 135.8 24.7 A 13.122 13.122 0 0 0 128.951 26.664 A 17.353 17.353 0 0 0 127.1 27.95 Q 123 31.2 120.1 35.6 L 120.1 70 Z M 0 65.8 L 3.8 58.3 A 18.557 18.557 0 0 0 6.944 60.426 Q 8.498 61.27 10.35 61.95 A 24.073 24.073 0 0 0 17.961 63.387 A 27.464 27.464 0 0 0 18.8 63.4 Q 24.192 63.4 27.035 61.685 A 7.738 7.738 0 0 0 27.25 61.55 Q 30.1 59.7 30.1 56.8 A 7.123 7.123 0 0 0 29.786 54.653 A 6.212 6.212 0 0 0 29.05 53.1 A 6.384 6.384 0 0 0 28.121 52.006 Q 27.107 51.034 25.434 50.081 A 22.3 22.3 0 0 0 25.2 49.95 A 28.462 28.462 0 0 0 23.206 48.957 Q 21.09 47.995 18.101 46.946 A 103.602 103.602 0 0 0 17.1 46.6 A 46.616 46.616 0 0 1 12.702 44.857 Q 10.588 43.883 8.912 42.795 A 19.335 19.335 0 0 1 6.15 40.65 A 11.324 11.324 0 0 1 2.856 34.654 A 16.794 16.794 0 0 1 2.5 31.1 Q 2.5 25.1 7.75 20.95 Q 12.154 17.469 19.408 16.908 A 37.527 37.527 0 0 1 22.3 16.8 A 40.794 40.794 0 0 1 26.746 17.031 Q 29.054 17.284 31.07 17.815 A 25.234 25.234 0 0 1 31.2 17.85 Q 35.1 18.9 38.2 20.5 L 35.7 27.9 Q 33 26.3 29.55 25.3 A 25.024 25.024 0 0 0 25.067 24.453 A 31.837 31.837 0 0 0 21.9 24.3 A 20.632 20.632 0 0 0 18.963 24.495 Q 15.877 24.94 14 26.4 A 9.322 9.322 0 0 0 12.642 27.673 Q 11.94 28.492 11.605 29.365 A 4.529 4.529 0 0 0 11.3 31 A 4.921 4.921 0 0 0 12.795 34.552 A 7.082 7.082 0 0 0 13.4 35.1 Q 15.465 36.772 21.398 38.734 A 84.459 84.459 0 0 0 21.6 38.8 A 67.753 67.753 0 0 1 26.662 40.698 Q 32.589 43.217 35.4 46.1 Q 39.3 50.1 39.3 56.1 Q 39.3 62.848 34.049 66.855 A 16.618 16.618 0 0 1 33.65 67.15 Q 28.91 70.547 21.462 71.095 A 40.423 40.423 0 0 1 18.5 71.2 Q 12.6 71.2 7.85 69.7 A 30.883 30.883 0 0 1 4.01 68.215 Q 2.029 67.284 0.448 66.136 A 18.229 18.229 0 0 1 0 65.8 Z M 408.8 70 L 399.3 70 L 399.3 8.4 L 377.8 8.4 L 377.8 0 L 430.3 0 L 430.3 8.4 L 408.8 8.4 L 408.8 70 Z M 59.9 67.75 A 24.559 24.559 0 0 0 64.498 69.84 Q 68.553 71.2 73.2 71.2 Q 80.6 71.2 86.45 67.8 Q 92.3 64.4 95.7 58.25 A 26.255 26.255 0 0 0 98.353 51.109 A 34.184 34.184 0 0 0 99.1 43.8 A 34.542 34.542 0 0 0 98.615 37.891 A 25.795 25.795 0 0 0 95.65 29.45 Q 92.2 23.4 86.35 20.1 A 24.848 24.848 0 0 0 81.709 18.073 A 27.738 27.738 0 0 0 73.2 16.8 A 31.325 31.325 0 0 0 71.62 16.839 A 26.169 26.169 0 0 0 60 20.1 Q 54.1 23.4 50.7 29.5 A 26.023 26.023 0 0 0 47.951 37.09 A 35.006 35.006 0 0 0 47.3 44 A 34.82 34.82 0 0 0 47.565 48.354 A 27.451 27.451 0 0 0 50.65 58.15 Q 54 64.3 59.9 67.75 Z M 73.2 63.2 Q 81.1 63.2 85.5 57.85 A 18.802 18.802 0 0 0 89.319 49.76 A 27.105 27.105 0 0 0 89.9 44 Q 89.9 38.8 87.7 34.45 A 19.198 19.198 0 0 0 83.528 28.881 A 18.17 18.17 0 0 0 81.75 27.45 Q 78 24.8 73.2 24.8 A 19.249 19.249 0 0 0 67.974 25.472 A 14.037 14.037 0 0 0 60.9 30 A 17.878 17.878 0 0 0 57.226 37.374 Q 56.5 40.306 56.5 43.8 Q 56.5 49 58.7 53.45 A 19.437 19.437 0 0 0 62.23 58.49 A 17.627 17.627 0 0 0 64.65 60.55 Q 68.4 63.2 73.2 63.2 Z M 204.3 56 L 204.3 28.8 Q 202.134 27.225 199.097 25.941 A 36.018 36.018 0 0 0 199 25.9 A 16.249 16.249 0 0 0 195.196 24.849 A 22.135 22.135 0 0 0 191.8 24.6 Q 187.7 24.6 184.1 26.8 Q 180.5 29 178.25 33.15 Q 176 37.3 176 43.3 A 24.32 24.32 0 0 0 176.478 48.236 A 18.311 18.311 0 0 0 178.25 53.2 A 18.576 18.576 0 0 0 181.161 57.275 A 15.802 15.802 0 0 0 184.1 59.7 Q 187.7 62 191.9 62 A 15.276 15.276 0 0 0 196.478 61.332 A 13.606 13.606 0 0 0 199.1 60.2 A 20.855 20.855 0 0 0 202.081 58.184 A 16.309 16.309 0 0 0 204.3 56 Z M 231.163 69.262 A 6.418 6.418 0 0 0 235.8 71.2 A 8.605 8.605 0 0 0 236.422 71.178 A 6.461 6.461 0 0 0 240.6 69.35 Q 242.5 67.5 242.5 64.5 A 6.225 6.225 0 0 0 241.921 61.829 A 6.955 6.955 0 0 0 240.45 59.8 Q 238.4 57.8 235.8 57.8 A 8.813 8.813 0 0 0 233.947 57.985 A 5.979 5.979 0 0 0 230.9 59.6 A 5.927 5.927 0 0 0 229.332 62.44 A 8.624 8.624 0 0 0 229.1 64.5 Q 229.1 67.2 231.1 69.2 A 8.317 8.317 0 0 0 231.163 69.262 Z" vector-effect="non-scaling-stroke"/></g></svg>