<svg width="1268.1" height="281.701" viewBox="0 0 1268.1 281.701" xmlns="http://www.w3.org/2000/svg">
  <g id="svgGroup" stroke-linecap="round" fill-rule="evenodd" font-size="9pt" stroke="#000" stroke-width="1mm" fill="none" style="stroke:#000;stroke-width:1mm;fill:none">
    <path d="M 148.2 99.6 L 99 99.6 Q 101.4 97.8 101.4 93.6 Q 101.4 89.564 96.968 87.052 A 15.346 15.346 0 0 0 96.6 86.85 A 19.91 19.91 0 0 0 91.883 85.107 Q 89.596 84.558 86.915 84.383 A 40.023 40.023 0 0 0 84.3 84.3 A 54.871 54.871 0 0 0 76.654 84.785 Q 61.8 86.888 61.8 98.1 Q 61.8 102.353 67.011 104.745 A 22.433 22.433 0 0 0 70.2 105.9 Q 78.6 108.3 90.6 109.8 Q 102.6 111.3 114.6 114.15 Q 126.6 117 135 125.4 A 28.054 28.054 0 0 1 142.736 140.42 A 40.245 40.245 0 0 1 143.4 147.9 Q 143.4 172.8 123.45 185.7 A 68.472 68.472 0 0 1 105.935 193.561 Q 89.213 198.6 65.4 198.6 Q 34.955 198.6 19.068 190.746 A 38.377 38.377 0 0 1 12 186.3 A 31.206 31.206 0 0 1 0.144 163.489 A 43.927 43.927 0 0 1 0 159.9 Q 0 155.1 0.9 150 L 51 149.4 Q 50.523 152.741 53.938 155.418 A 16.311 16.311 0 0 0 55.95 156.75 A 19.85 19.85 0 0 0 60.386 158.543 Q 64.812 159.787 71.139 159.891 A 71.16 71.16 0 0 0 72.3 159.9 A 82.386 82.386 0 0 0 77.614 159.741 Q 82.637 159.415 85.874 158.419 A 15.562 15.562 0 0 0 87.9 157.65 A 7.821 7.821 0 0 0 92.381 152.079 A 13.001 13.001 0 0 0 92.7 149.1 Q 92.7 144.9 84.3 143.25 A 157.932 157.932 0 0 0 77.473 142.076 Q 74.408 141.613 70.978 141.194 A 315.747 315.747 0 0 0 63.75 140.4 Q 51.6 139.2 39.45 136.5 Q 27.3 133.8 18.9 125.1 Q 10.5 116.4 10.5 102.3 A 56.107 56.107 0 0 1 13.474 83.597 A 46.928 46.928 0 0 1 31.65 60.3 A 71.458 71.458 0 0 1 51.481 50.92 Q 68.698 45.6 92.7 45.6 A 158.344 158.344 0 0 1 113.6 46.855 Q 136.358 49.904 146.359 60.358 A 29.06 29.06 0 0 1 154.2 81.3 Q 154.2 91.2 148.2 99.6 Z M 1118.7 138.9 L 1139.1 22.8 L 1194 0 L 1185.3 50.1 L 1268.1 50.1 L 1260.6 92.4 L 1177.8 92.4 L 1171.8 126.3 A 62.195 62.195 0 0 0 1170.98 131.058 Q 1170.671 133.423 1170.613 135.537 A 35.204 35.204 0 0 0 1170.6 136.5 A 28.654 28.654 0 0 0 1171.461 143.864 Q 1173.97 153.271 1183.783 155.007 A 27.684 27.684 0 0 0 1188.6 155.4 A 19.334 19.334 0 0 0 1203.201 148.975 A 26.693 26.693 0 0 0 1204.65 147.3 Q 1210.269 140.244 1212.814 129.091 A 71.446 71.446 0 0 0 1213.5 125.7 L 1263.3 125.7 A 114.633 114.633 0 0 1 1253.306 157.594 Q 1235.983 192.193 1194.993 197.599 A 122.355 122.355 0 0 1 1179 198.6 A 122.403 122.403 0 0 1 1161.082 197.383 Q 1152.157 196.058 1145.035 193.291 A 45.079 45.079 0 0 1 1128.9 183 Q 1117.5 171.6 1117.5 152.4 A 75.534 75.534 0 0 1 1117.946 144.388 A 94.297 94.297 0 0 1 1118.7 138.9 Z M 401.7 98.7 L 384.9 194.4 L 333.9 194.4 L 359.4 50.1 L 406.8 50.1 L 403.5 67.8 A 60.931 60.931 0 0 1 420.428 53.023 A 54.653 54.653 0 0 1 448.2 45.9 Q 475.2 45.9 483.3 59.1 A 35.312 35.312 0 0 1 488.269 74.902 A 43.452 43.452 0 0 1 488.4 78.3 A 137.012 137.012 0 0 1 487.843 90.905 A 111.598 111.598 0 0 1 486.9 98.4 L 478.8 144.6 Q 478.5 146.4 478.5 147.9 Q 478.5 156 487.5 156 A 27.098 27.098 0 0 0 494.693 155.077 A 22.999 22.999 0 0 0 499.8 153 L 498.3 186.9 Q 484.2 198.6 466.2 198.6 A 71.134 71.134 0 0 1 451.055 197.134 Q 429.176 192.346 425.956 171.917 A 48.301 48.301 0 0 1 425.4 164.4 A 68.724 68.724 0 0 1 425.823 156.958 A 86.762 86.762 0 0 1 426.6 151.5 L 433.8 111.6 A 78.717 78.717 0 0 0 434.348 107.761 Q 434.568 105.871 434.651 104.211 A 38.606 38.606 0 0 0 434.7 102.3 Q 434.7 89.4 422.25 89.4 Q 409.8 89.4 401.7 98.7 Z M 833.4 98.7 L 816.6 194.4 L 765.6 194.4 L 791.1 50.1 L 838.5 50.1 L 835.2 67.8 A 60.931 60.931 0 0 1 852.128 53.023 A 54.653 54.653 0 0 1 879.9 45.9 Q 906.9 45.9 915 59.1 A 35.312 35.312 0 0 1 919.969 74.902 A 43.452 43.452 0 0 1 920.1 78.3 A 137.012 137.012 0 0 1 919.543 90.905 A 111.598 111.598 0 0 1 918.6 98.4 L 910.5 144.6 Q 910.2 146.4 910.2 147.9 Q 910.2 156 919.2 156 A 27.098 27.098 0 0 0 926.393 155.077 A 22.999 22.999 0 0 0 931.5 153 L 930 186.9 Q 915.9 198.6 897.9 198.6 A 71.134 71.134 0 0 1 882.755 197.134 Q 860.876 192.346 857.656 171.917 A 48.301 48.301 0 0 1 857.1 164.4 A 68.724 68.724 0 0 1 857.523 156.958 A 86.762 86.762 0 0 1 858.3 151.5 L 865.5 111.6 A 78.717 78.717 0 0 0 866.048 107.761 Q 866.268 105.871 866.351 104.211 A 38.606 38.606 0 0 0 866.4 102.3 Q 866.4 89.4 853.95 89.4 Q 841.5 89.4 833.4 98.7 Z M 518.1 140.4 L 524.1 105.3 A 87.124 87.124 0 0 1 530.712 83.771 A 67.762 67.762 0 0 1 546.3 62.25 A 59.592 59.592 0 0 1 577.438 47.332 A 83.307 83.307 0 0 1 591.45 46.2 A 88.98 88.98 0 0 1 604.592 47.097 Q 620.5 49.481 628.174 58.198 A 25.899 25.899 0 0 1 629.4 59.7 L 631.2 50.1 L 675.9 50.1 L 649.5 199.2 A 127.194 127.194 0 0 1 641.128 228.026 A 93.782 93.782 0 0 1 619.35 259.5 A 83.197 83.197 0 0 1 594.952 275.798 A 74.237 74.237 0 0 1 565.5 281.7 Q 538.304 281.7 524.763 272.758 A 32.961 32.961 0 0 1 521.85 270.6 A 35.573 35.573 0 0 1 508.617 244.814 A 46.068 46.068 0 0 1 508.5 241.5 A 41.683 41.683 0 0 1 518.54 214.7 Q 523.744 208.288 531.646 202.43 A 111.668 111.668 0 0 1 542.1 195.6 A 36.986 36.986 0 0 1 527.452 187.249 Q 516.6 176.862 516.6 156.9 Q 516.6 149.4 518.1 140.4 Z M 948.6 142.5 L 954.9 105.3 Q 960 76.5 981.45 61.05 Q 1000.198 47.546 1029.602 45.845 A 150.627 150.627 0 0 1 1038.3 45.6 A 117.042 117.042 0 0 1 1060.215 47.463 Q 1096.063 54.332 1098.432 86.517 A 63.787 63.787 0 0 1 1098.6 91.2 A 84.249 84.249 0 0 1 1098.241 98.778 A 110.186 110.186 0 0 1 1097.4 105.6 L 1093.8 126.9 L 1002.3 126.9 L 1001.1 133.8 Q 1000.5 137.4 1000.5 140.4 A 19.82 19.82 0 0 0 1001.644 147.424 Q 1004.935 156.139 1017.698 156.839 A 42.052 42.052 0 0 0 1020 156.9 A 19.142 19.142 0 0 0 1027.034 155.639 A 17.623 17.623 0 0 0 1032.3 152.4 A 19.603 19.603 0 0 0 1036.06 148.014 A 16.061 16.061 0 0 0 1038.3 141.9 L 1088.1 142.5 A 70.464 70.464 0 0 1 1076.663 171.44 Q 1057.393 198.6 1009.8 198.6 A 133.442 133.442 0 0 1 987.805 196.952 Q 948.776 190.394 947.447 157.735 A 57.428 57.428 0 0 1 947.4 155.4 A 68.724 68.724 0 0 1 947.823 147.958 A 86.762 86.762 0 0 1 948.6 142.5 Z M 318.9 105.3 L 312.6 140.4 Q 308.292 164.432 295.332 177.842 A 50.231 50.231 0 0 1 286.05 185.4 Q 265.2 198.6 230.4 198.6 Q 197.436 198.6 181.161 186.756 A 40.705 40.705 0 0 1 179.4 185.4 A 31.563 31.563 0 0 1 168.95 168.653 Q 167.4 162.816 167.4 155.7 Q 167.4 148.854 168.877 140.531 A 119.705 119.705 0 0 1 168.9 140.4 L 175.2 105.3 Q 185.234 48.534 252.257 46.017 A 169.025 169.025 0 0 1 258.6 45.9 A 118.858 118.858 0 0 1 276.868 47.209 Q 296.027 50.196 307.5 60 A 36.297 36.297 0 0 1 319.783 82.654 A 52.928 52.928 0 0 1 320.4 90.9 A 67.544 67.544 0 0 1 319.951 98.478 A 89.272 89.272 0 0 1 318.9 105.3 Z M 680.164 167.019 A 69.733 69.733 0 0 0 679.5 177 Q 679.5 198.437 704.025 198.599 A 56.762 56.762 0 0 0 704.4 198.6 Q 714.408 198.6 721.5 195.998 A 25.966 25.966 0 0 0 731.25 189.9 Q 739.8 181.2 739.8 162.3 A 31.841 31.841 0 0 0 739.307 156.523 Q 736.274 140.1 714.6 140.1 Q 696.3 140.1 687.9 148.95 A 26.425 26.425 0 0 0 682.481 157.798 Q 680.907 161.897 680.164 167.019 Z M 262.8 133.8 L 266.7 111.3 Q 267.3 108.3 267.3 103.65 Q 267.3 100.093 265.018 95.922 A 31.033 31.033 0 0 0 263.4 93.3 A 12.088 12.088 0 0 0 257.218 88.711 Q 255.092 87.964 252.452 87.72 A 29.281 29.281 0 0 0 249.75 87.6 A 24.269 24.269 0 0 0 240.915 89.163 A 22.099 22.099 0 0 0 233.4 94.05 Q 226.8 100.5 225 111.3 L 221.1 133.8 Q 220.5 136.8 220.5 141.45 A 13.034 13.034 0 0 0 221.287 145.779 Q 221.89 147.496 222.955 149.301 A 28.489 28.489 0 0 0 224.4 151.5 A 11.837 11.837 0 0 0 229.977 155.633 Q 233.327 156.9 238.05 156.9 A 23.169 23.169 0 0 0 247.267 155.105 A 22.108 22.108 0 0 0 254.4 150.15 Q 261 143.4 262.8 133.8 Z M 574.2 111.3 L 570.3 133.8 A 20.057 20.057 0 0 0 569.984 135.693 Q 569.74 137.676 569.706 140.392 A 72.023 72.023 0 0 0 569.7 141.3 A 11.124 11.124 0 0 0 571.008 146.431 Q 572.126 148.607 574.2 150.75 A 13.037 13.037 0 0 0 578.844 153.75 Q 583.006 155.4 589.35 155.4 A 24.068 24.068 0 0 0 606.752 148.079 A 32.484 32.484 0 0 0 607.8 147 L 616.8 96.6 A 13.687 13.687 0 0 0 608.62 90.155 Q 606.121 89.364 603.028 89.166 A 33.36 33.36 0 0 0 600.9 89.1 A 36.753 36.753 0 0 0 593.537 89.793 Q 589.116 90.697 585.699 92.782 A 20.348 20.348 0 0 0 582.6 95.1 A 25.832 25.832 0 0 0 575.543 106.036 A 34.732 34.732 0 0 0 574.2 111.3 Z M 597.9 203.4 L 600.9 186 Q 560.404 204.937 559.235 224.157 A 18.821 18.821 0 0 0 559.2 225.3 A 17.032 17.032 0 0 0 559.726 229.644 A 12.578 12.578 0 0 0 562.65 235.05 A 11.24 11.24 0 0 0 568.57 238.396 A 17.109 17.109 0 0 0 572.4 238.8 A 19.138 19.138 0 0 0 588.425 230.088 Q 594.877 221.238 597.9 203.4 Z M 1005.3 108.6 L 1045.8 108.6 Q 1047 103.5 1047 99.15 A 10.845 10.845 0 0 0 1045.994 94.693 Q 1045.02 92.515 1043.1 90.3 A 11.934 11.934 0 0 0 1037.94 86.89 Q 1035.966 86.192 1033.529 85.941 A 28.127 28.127 0 0 0 1030.65 85.8 A 24.117 24.117 0 0 0 1015.499 91.144 A 30.198 30.198 0 0 0 1015.05 91.5 A 25.296 25.296 0 0 0 1008.567 99.577 Q 1006.825 102.907 1005.697 107.041 A 47.535 47.535 0 0 0 1005.3 108.6 Z" vector-effect="non-scaling-stroke"/>
  </g>
</svg>